<mxfile host="app.diagrams.net" modified="2024-02-07T18:00:22.596Z" agent="Mozilla/5.0 (Windows NT 10.0; Win64; x64) AppleWebKit/537.36 (KHTML, like Gecko) Chrome/120.0.0.0 Safari/537.36 OPR/106.0.0.0" version="23.1.1" etag="7E6etQAh6W2xjt6KYDNd" type="github">
  <diagram name="Page-1" id="3Jr4Tljm5j0yp5uo08Mj">
    <mxGraphModel>
      <root>
        <mxCell id="0" />
        <mxCell id="1" parent="0" />
      </root>
    </mxGraphModel>
  </diagram>
</mxfile>
